<svg id="Capa_1" data-name="Capa 1" xmlns="http://www.w3.org/2000/svg" viewBox="0 0 32 33"><defs><style>.cls-1{fill:#2b317f;}.cls-2{fill:#f5f5f5;}.cls-3{fill:#1d1e1c;}.cls-4{fill:#6ec5d7;}.cls-5{fill:#fff;}.cls-6{fill:#39a7df;}</style></defs><circle class="cls-1" cx="16.73" cy="16.14" r="14.12"/><path class="cls-2" d="M11.81,14.05v-.4a.43.43,0,0,0,0-.05,4.93,4.93,0,0,1,.07-.66,6,6,0,0,1,.35-1.25v0s0-.08,0-.12V11.2c0-.21,0-.43,0-.65,0-.4,0-.81.09-1.21a1.26,1.26,0,0,1,.1-.38.3.3,0,0,1,.23-.18h.16a1,1,0,0,1,.41.13c.54.3,1.09.59,1.62.9a.08.08,0,0,0,.08,0,3.29,3.29,0,0,1,.44-.16,7.43,7.43,0,0,1,1.14-.23,6,6,0,0,1,.61-.07h.68a6,6,0,0,1,.95.07l.44.08a5.47,5.47,0,0,1,1.2.26h.05l1.07-.55c.2-.11.4-.21.61-.3a1,1,0,0,1,.47-.11.31.31,0,0,1,.28.19.88.88,0,0,1,.07.23c0,.24.05.48.06.71s0,.59,0,.88,0,.48,0,.73a.77.77,0,0,1,0,.15.08.08,0,0,0,0,.07,5.7,5.7,0,0,1,.5,1.86v.66a3.45,3.45,0,0,1-.07.55,3.6,3.6,0,0,1-1,1.87,4.24,4.24,0,0,1-1.12.8,5.8,5.8,0,0,1-1.87.57c-.5.07-1,.1-1.5.12h-.79l-.77,0A9,9,0,0,1,15.31,18a5.08,5.08,0,0,1-1.7-.67A3.79,3.79,0,0,1,12.35,16a4.26,4.26,0,0,1-.53-1.81A.76.76,0,0,0,11.81,14.05Zm7.65.95h0l-.06.14a.74.74,0,0,1-.14.28.87.87,0,0,1-.32.22l-.09,0-.15,0A1.07,1.07,0,0,1,18,15.5a1.22,1.22,0,0,1-.36-.45.2.2,0,0,1,0-.11c0-.08,0-.17,0-.25a.05.05,0,0,1,0,0l.17-.12.24-.22a.21.21,0,0,0,0-.24A.34.34,0,0,0,18,14a.51.51,0,0,0-.3-.07,1.19,1.19,0,0,0-.46,0,.21.21,0,0,0-.16.18.3.3,0,0,0,.07.24,1.4,1.4,0,0,0,.39.3l0,0a.86.86,0,0,1,0,.32.51.51,0,0,1-.1.21,1.63,1.63,0,0,1-.38.36,1,1,0,0,1-.8.15.75.75,0,0,1-.35-.16.69.69,0,0,1-.2-.48.09.09,0,0,1,0-.05h0a.13.13,0,0,0,0,.06.59.59,0,0,0,.24.55.86.86,0,0,0,.45.15,1,1,0,0,0,.72-.18,1.79,1.79,0,0,0,.46-.49l0-.05.06.09a1.43,1.43,0,0,0,.3.35,1.13,1.13,0,0,0,.46.21.78.78,0,0,0,.34,0,.82.82,0,0,0,.7-.64S19.46,15,19.46,15Zm-5-1.87h0l.24,0a2.72,2.72,0,0,1,.7,0,1.49,1.49,0,0,1,.9.36l.22.2s0,0,0,0a0,0,0,0,0,0-.06l0,0a1.62,1.62,0,0,0-1-.55A2.56,2.56,0,0,0,15,13l-.31,0A.24.24,0,0,0,14.44,13.13Zm6.46,0a.24.24,0,0,0-.14-.12h-.09a3,3,0,0,0-.67,0,1.76,1.76,0,0,0-.83.29,1.54,1.54,0,0,0-.37.35s0,.07,0,.09l.15-.15a1.73,1.73,0,0,1,.64-.4A3.1,3.1,0,0,1,20,13a2.28,2.28,0,0,1,.64,0ZM17.58,16a.58.58,0,0,0,.28-.06,0,0,0,0,0,0-.05s0,0-.05,0h0a.45.45,0,0,1-.26.05.44.44,0,0,1-.19-.07s0,0,0,0a0,0,0,0,0,0,.05h0A.46.46,0,0,0,17.58,16Z"/><path class="cls-3" d="M19.46,15s0,.08,0,.12a.82.82,0,0,1-.7.64.78.78,0,0,1-.34,0,1.13,1.13,0,0,1-.46-.21,1.43,1.43,0,0,1-.3-.35l-.06-.09,0,.05a1.79,1.79,0,0,1-.46.49,1,1,0,0,1-.72.18.86.86,0,0,1-.45-.15.59.59,0,0,1-.24-.55.13.13,0,0,1,0-.06h0a.09.09,0,0,0,0,.05.69.69,0,0,0,.2.48.75.75,0,0,0,.35.16,1,1,0,0,0,.8-.15,1.63,1.63,0,0,0,.38-.36.51.51,0,0,0,.1-.21.86.86,0,0,0,0-.32l0,0a1.4,1.4,0,0,1-.39-.3.3.3,0,0,1-.07-.24.21.21,0,0,1,.16-.18,1.19,1.19,0,0,1,.46,0A.51.51,0,0,1,18,14a.34.34,0,0,1,.09.08.21.21,0,0,1,0,.24l-.24.22-.17.12a.05.05,0,0,0,0,0c0,.08,0,.17,0,.25a.2.2,0,0,0,0,.11,1.22,1.22,0,0,0,.36.45,1.07,1.07,0,0,0,.69.19l.15,0,.09,0a.87.87,0,0,0,.32-.22.74.74,0,0,0,.14-.28l.06-.14Z"/><path class="cls-3" d="M14.44,13.13a.24.24,0,0,1,.21-.13L15,13a2.56,2.56,0,0,1,.62,0,1.62,1.62,0,0,1,1,.55l0,0a0,0,0,0,1,0,.06s0,0,0,0l-.22-.2a1.49,1.49,0,0,0-.9-.36,2.72,2.72,0,0,0-.7,0l-.24,0Z"/><path class="cls-3" d="M20.9,13.09l-.24,0A2.28,2.28,0,0,0,20,13a3.1,3.1,0,0,0-.42.08,1.73,1.73,0,0,0-.64.4l-.15.15s0-.05,0-.09a1.54,1.54,0,0,1,.37-.35,1.76,1.76,0,0,1,.83-.29,3,3,0,0,1,.67,0h.09A.24.24,0,0,1,20.9,13.09Z"/><path class="cls-3" d="M17.58,16a.46.46,0,0,1-.23-.07h0a0,0,0,0,1,0-.05s0,0,0,0a.44.44,0,0,0,.19.07.45.45,0,0,0,.26-.05h0s0,0,.05,0a0,0,0,0,1,0,.05A.58.58,0,0,1,17.58,16Z"/><path class="cls-4" d="M20.2,15.28h-.54a.28.28,0,0,1-.31-.28.29.29,0,0,1,.32-.29h1.06a.29.29,0,0,1,.32.29.28.28,0,0,1-.31.28Z"/><path class="cls-4" d="M18.49,15.28a.27.27,0,0,1-.27-.29.29.29,0,0,1,.28-.28.28.28,0,0,1,.28.29A.27.27,0,0,1,18.49,15.28Z"/><path class="cls-4" d="M21.49,10.42a1.57,1.57,0,0,1,.32.15.83.83,0,0,1,.37.75v1.55c0,.87,0,1.74,0,2.61a.89.89,0,0,1-.94.94c-2.2,0-4.41,0-6.62,0a.85.85,0,0,1-.93-.94c0-1.34,0-2.68,0-4a.92.92,0,0,1,.7-1Zm-7.23,2.84V15.5c0,.25.1.34.34.34h6.67c.24,0,.34-.1.34-.34V13.4c0-.05,0-.09,0-.14Zm7.34-1.14H14.27v.55h7.34v-.45A.38.38,0,0,0,21.6,12.12Zm0-.58a.2.2,0,0,0,0-.07c0-.43-.05-.49-.47-.49H14.52a.26.26,0,0,0-.25.24c0,.1,0,.2,0,.31Z"/><path class="cls-5" d="M14.26,13.26H21.6c0,.05,0,.09,0,.14v2.1c0,.24-.1.34-.34.34H14.6c-.24,0-.34-.09-.34-.34V13.26Zm5.94,2h.54a.28.28,0,0,0,.31-.28.29.29,0,0,0-.32-.29H19.67a.29.29,0,0,0-.32.29.28.28,0,0,0,.31.28Zm-1.71,0a.28.28,0,0,0,.29-.28.28.28,0,0,0-.28-.29.29.29,0,0,0-.28.28A.27.27,0,0,0,18.49,15.28Z"/><path class="cls-5" d="M21.6,12.12a.38.38,0,0,1,0,.1v.45H14.27v-.55Z"/><path class="cls-5" d="M21.6,11.54H14.26c0-.11,0-.21,0-.31a.26.26,0,0,1,.25-.24h6.62c.42,0,.48.06.47.49A.2.2,0,0,1,21.6,11.54Z"/><line class="cls-5" x1="12.61" y1="11.88" x2="8.59" y2="11.9"/><path class="cls-4" d="M8.59,11.9h0a.17.17,0,0,1,.19-.16l3.64,0a.17.17,0,0,1,.19.16h0a.18.18,0,0,1-.19.17l-3.64,0A.18.18,0,0,1,8.59,11.9Z"/><line class="cls-5" x1="11.19" y1="13.24" x2="6.59" y2="13.27"/><rect class="cls-4" x="6.59" y="13.04" width="4.6" height="0.43" rx="0.21" transform="translate(-0.08 0.05) rotate(-0.35)"/><line class="cls-5" x1="12.2" y1="14.37" x2="7.6" y2="14.4"/><rect class="cls-4" x="7.6" y="14.17" width="4.6" height="0.43" rx="0.21" transform="translate(-0.09 0.06) rotate(-0.35)"/><line class="cls-5" x1="13.33" y1="15.46" x2="9.66" y2="15.48"/><rect class="cls-4" x="9.66" y="15.3" width="3.67" height="0.34" rx="0.17" transform="translate(-0.09 0.07) rotate(-0.35)"/><path class="cls-6" d="M11,22.35c0,.08,0,.13-.12.13h-.27c-.08,0-.12-.05-.12-.13v-.62H9.91v.62c0,.08,0,.13-.12.13H9.52c-.08,0-.12-.05-.12-.13V20.59a.11.11,0,0,1,.12-.12h.27a.11.11,0,0,1,.12.12v.63h.56v-.63a.11.11,0,0,1,.12-.12h.27a.11.11,0,0,1,.12.12Z"/><path class="cls-5" d="M12.52,20.47a.13.13,0,0,1,.14.1l.62,1.77c0,.09,0,.14-.1.14h-.29a.15.15,0,0,1-.14-.1l-.08-.25h-.6l-.08.25a.14.14,0,0,1-.14.1h-.3c-.09,0-.13-.05-.1-.14l.62-1.77a.15.15,0,0,1,.14-.1Zm0,1.22-.19-.56-.17.56Z"/><path class="cls-5" d="M15.16,21.13a.67.67,0,0,1-.23.52.75.75,0,0,1-.45.14h-.39v.56c0,.08,0,.13-.12.13H13.7c-.08,0-.12-.05-.12-.13V20.59a.11.11,0,0,1,.12-.12h.82a.65.65,0,0,1,.44.15.57.57,0,0,1,.13.19A.79.79,0,0,1,15.16,21.13Zm-.49,0A.16.16,0,0,0,14.5,21h-.41v.33h.39A.19.19,0,0,0,14.67,21.13Z"/><path class="cls-5" d="M17,21.13a.67.67,0,0,1-.23.52.7.7,0,0,1-.44.14H16v.56c0,.08,0,.13-.11.13h-.28c-.07,0-.11-.05-.11-.13V20.59c0-.08,0-.12.11-.12h.83a.63.63,0,0,1,.43.15.59.59,0,0,1,.14.19A.79.79,0,0,1,17,21.13Zm-.49,0a.15.15,0,0,0-.16-.16H16v.33h.4A.18.18,0,0,0,16.53,21.13Z"/><path class="cls-5" d="M17.91,22.48c-.08,0-.12-.05-.12-.13v-.81l-.58-.92c-.05-.09,0-.15.08-.15h.33a.17.17,0,0,1,.14.08L18,21l.29-.46a.16.16,0,0,1,.14-.08h.32c.11,0,.14.06.08.15l-.57.92v.81c0,.08,0,.13-.12.13Z"/><path class="cls-5" d="M20.77,21.13a.67.67,0,0,1-.23.52.75.75,0,0,1-.45.14H19.7v.56c0,.08,0,.13-.12.13h-.27c-.08,0-.12-.05-.12-.13V20.59a.11.11,0,0,1,.12-.12h.82a.67.67,0,0,1,.44.15.57.57,0,0,1,.13.19A.79.79,0,0,1,20.77,21.13Zm-.49,0a.16.16,0,0,0-.17-.16H19.7v.33h.39A.19.19,0,0,0,20.28,21.13Z"/><path class="cls-5" d="M22.08,22.53a1.09,1.09,0,0,1-.74-.31,1,1,0,0,1-.31-.75,1,1,0,0,1,.31-.74,1,1,0,0,1,.74-.31,1.08,1.08,0,0,1,.75.31,1,1,0,0,1,.31.74,1.07,1.07,0,0,1-.31.75A1.13,1.13,0,0,1,22.08,22.53Zm0-1.6a.55.55,0,0,0-.38.16.57.57,0,0,0-.16.38.6.6,0,0,0,.16.39.5.5,0,0,0,.38.15.56.56,0,0,0,.39-.15.59.59,0,0,0,.15-.39.56.56,0,0,0-.15-.38A.62.62,0,0,0,22.08,20.93Z"/><path class="cls-5" d="M24.55,22a.1.1,0,0,0,.05-.08.24.24,0,0,0,0-.08.05.05,0,0,1,0,0l-.17-.07a.84.84,0,0,0-.18,0,1.15,1.15,0,0,1-.67-.34.63.63,0,0,1-.09-.25.75.75,0,0,1,0-.23.68.68,0,0,1,.29-.34,1.07,1.07,0,0,1,.51-.12,1.55,1.55,0,0,1,.41.06.85.85,0,0,1,.27.13.1.1,0,0,1,0,.16l-.16.2c0,.07-.09.08-.16,0a.75.75,0,0,0-.39-.11.43.43,0,0,0-.2,0A.19.19,0,0,0,24,21a.09.09,0,0,0,.05.12.86.86,0,0,0,.21.07,1.3,1.3,0,0,1,.75.33.59.59,0,0,1,.11.47.61.61,0,0,1-.22.36.91.91,0,0,1-.58.16h-.1a1.46,1.46,0,0,1-.72-.21.11.11,0,0,1,0-.17l.19-.23a.12.12,0,0,1,.17,0,1,1,0,0,0,.4.15A.58.58,0,0,0,24.55,22Z"/></svg>