<svg id="Capa_1" data-name="Capa 1" xmlns="http://www.w3.org/2000/svg" viewBox="0 0 360 360"><defs><style>.cls-1{fill:#2d2e82;}.cls-2{fill:#f6f6f6;}.cls-3{fill:#1d1d1b;}.cls-4{fill:#6ec6d8;}.cls-5{fill:#fff;}.cls-6{fill:#36a9e1;}</style></defs><ellipse class="cls-1" cx="189.49" cy="170.17" rx="119.08" ry="115.16"/><path class="cls-2" d="M139.12,155.3v-3.52c0-.15,0-.3,0-.46a49.35,49.35,0,0,1,.62-5.81,52.66,52.66,0,0,1,3.08-11,.73.73,0,0,0,0-.36c0-.34-.15-.67-.16-1,0-1,0-1.93,0-2.9.09-1.91.23-3.81.32-5.73.15-3.54.29-7.08.79-10.6a10.92,10.92,0,0,1,.87-3.33,2.78,2.78,0,0,1,2.07-1.63l.12,0H148l.13,0a9.5,9.5,0,0,1,3.59,1.18c4.78,2.59,9.58,5.12,14.24,7.92a.7.7,0,0,0,.67.06,37.14,37.14,0,0,1,3.89-1.44,63.1,63.1,0,0,1,10-2c1.76-.19,3.52-.47,5.3-.57,2-.12,4-.11,6-.12a50.36,50.36,0,0,1,8.4.68c1.28.22,2.56.5,3.85.65a50.93,50.93,0,0,1,10.56,2.31.53.53,0,0,0,.39,0c3.14-1.61,6.26-3.24,9.4-4.84,1.77-.91,3.55-1.78,5.34-2.64a8.51,8.51,0,0,1,4.18-.9,2.62,2.62,0,0,1,2.42,1.6,7.47,7.47,0,0,1,.65,2c.24,2.09.44,4.19.53,6.28.12,2.55.12,5.11.15,7.66q0,3.21,0,6.42a5.31,5.31,0,0,1-.23,1.37.8.8,0,0,0,0,.59,50.68,50.68,0,0,1,4.37,16.35c0,.55.09,1.11.14,1.66V157a2.5,2.5,0,0,0-.05.29,35.88,35.88,0,0,1-.59,4.85,31.34,31.34,0,0,1-8.53,16.4,36.88,36.88,0,0,1-9.8,7,50.71,50.71,0,0,1-16.43,5,121.42,121.42,0,0,1-13.19,1l-.5,0h-6.16a1.55,1.55,0,0,0-.29,0c-2.23-.11-4.46-.19-6.69-.34a73.6,73.6,0,0,1-9.92-1.31,44.13,44.13,0,0,1-14.93-5.9,32.79,32.79,0,0,1-11.11-11.58,36.89,36.89,0,0,1-4.6-15.86C139.19,156.18,139.16,155.74,139.12,155.3Zm67.14,8.29-.11,0c-.16.42-.32.84-.47,1.26a8.05,8.05,0,0,1-1.29,2.44,7.7,7.7,0,0,1-2.78,2,3.67,3.67,0,0,1-.8.23c-.43.07-.86.11-1.3.14a8.72,8.72,0,0,1-6-1.61,10.76,10.76,0,0,1-3.21-4,2.16,2.16,0,0,1-.22-.94c0-.74,0-1.49,0-2.24a.51.51,0,0,1,.19-.34c.48-.37,1-.69,1.47-1.08.73-.61,1.46-1.22,2.13-1.89a1.69,1.69,0,0,0,.21-2.08,2.53,2.53,0,0,0-.71-.71,5.2,5.2,0,0,0-2.64-.68,11.38,11.38,0,0,0-4.07.34,1.84,1.84,0,0,0-1.4,1.58,2.47,2.47,0,0,0,.65,2.07,11.36,11.36,0,0,0,3.36,2.61.39.39,0,0,1,.17.21,6.56,6.56,0,0,1,0,2.79,5.19,5.19,0,0,1-.9,1.86,15.39,15.39,0,0,1-3.29,3.16,9.1,9.1,0,0,1-7.09,1.29,5.73,5.73,0,0,1-3-1.43,6,6,0,0,1-1.8-4.21l0-.37c-.05,0-.05,0-.06.06s0,.34,0,.51a5.21,5.21,0,0,0,.62,3.21,5.76,5.76,0,0,0,1.47,1.6,7.28,7.28,0,0,0,3.94,1.39,9.16,9.16,0,0,0,6.32-1.64,14.77,14.77,0,0,0,4-4.3l.27-.42.52.81a13.47,13.47,0,0,0,2.63,3,11,11,0,0,0,4.09,1.88,7.48,7.48,0,0,0,3,.11,7.11,7.11,0,0,0,6.11-5.63C206.21,164.28,206.23,163.93,206.26,163.59Zm-44-16.37.25,0c.72-.12,1.43-.23,2.14-.36a25.6,25.6,0,0,1,6.06-.21,13.05,13.05,0,0,1,8,3.21c.65.57,1.27,1.19,1.91,1.78a.26.26,0,0,0,.23.07.41.41,0,0,0,.2-.57,2,2,0,0,0-.25-.35,14.37,14.37,0,0,0-8.53-4.84,20.32,20.32,0,0,0-5.45-.2c-.92.08-1.85.18-2.76.31A2.16,2.16,0,0,0,162.21,147.22Zm56.69-.36a1.73,1.73,0,0,0-1.22-1,5.82,5.82,0,0,0-.79-.16,31.77,31.77,0,0,0-5.85-.12,15.22,15.22,0,0,0-7.32,2.52,13.37,13.37,0,0,0-3.27,3.05c-.3.4-.25.64.09.81.47-.43.93-.85,1.37-1.28a14,14,0,0,1,5.62-3.56,19.16,19.16,0,0,1,3.68-.64,21.71,21.71,0,0,1,5.58.12C217.49,146.67,218.2,146.76,218.9,146.86Zm-29.16,25.36a4.93,4.93,0,0,0,2.51-.58c.16-.09.26-.21.17-.39a.29.29,0,0,0-.45-.13l-.07,0a3.94,3.94,0,0,1-2.28.45,4.21,4.21,0,0,1-1.71-.59c-.14-.08-.27-.09-.37.06a.29.29,0,0,0,.05.43.6.6,0,0,0,.13.09A4.26,4.26,0,0,0,189.74,172.22Z"/><path class="cls-3" d="M206.26,163.59c0,.34,0,.69-.11,1a7.11,7.11,0,0,1-6.11,5.63,7.48,7.48,0,0,1-3-.11,11,11,0,0,1-4.09-1.88,13.47,13.47,0,0,1-2.63-3l-.52-.81-.27.42a14.77,14.77,0,0,1-4,4.3,9.16,9.16,0,0,1-6.32,1.64,7.28,7.28,0,0,1-3.94-1.39,5.76,5.76,0,0,1-1.47-1.6,5.21,5.21,0,0,1-.62-3.21c0-.17,0-.34,0-.51s0,0,.06-.06l0,.37a6,6,0,0,0,1.8,4.21,5.73,5.73,0,0,0,3,1.43,9.1,9.1,0,0,0,7.09-1.29,15.39,15.39,0,0,0,3.29-3.16,5.19,5.19,0,0,0,.9-1.86,6.56,6.56,0,0,0,0-2.79.39.39,0,0,0-.17-.21,11.36,11.36,0,0,1-3.36-2.61,2.47,2.47,0,0,1-.65-2.07,1.84,1.84,0,0,1,1.4-1.58,11.38,11.38,0,0,1,4.07-.34,5.2,5.2,0,0,1,2.64.68,2.53,2.53,0,0,1,.71.71,1.69,1.69,0,0,1-.21,2.08c-.67.67-1.4,1.28-2.13,1.89-.46.39-1,.71-1.47,1.08a.51.51,0,0,0-.19.34c0,.75-.07,1.5,0,2.24a2.16,2.16,0,0,0,.22.94,10.76,10.76,0,0,0,3.21,4,8.72,8.72,0,0,0,6,1.61c.44,0,.87-.07,1.3-.14a3.67,3.67,0,0,0,.8-.23,7.7,7.7,0,0,0,2.78-2,8.05,8.05,0,0,0,1.29-2.44c.15-.42.31-.84.47-1.26Z"/><path class="cls-3" d="M162.21,147.22A2.16,2.16,0,0,1,164,146c.91-.13,1.84-.23,2.76-.31a20.32,20.32,0,0,1,5.45.2,14.37,14.37,0,0,1,8.53,4.84,2,2,0,0,1,.25.35.41.41,0,0,1-.2.57.26.26,0,0,1-.23-.07c-.64-.59-1.26-1.21-1.91-1.78a13.05,13.05,0,0,0-8-3.21,25.6,25.6,0,0,0-6.06.21c-.71.13-1.42.24-2.14.36Z"/><path class="cls-3" d="M218.9,146.86c-.7-.1-1.41-.19-2.11-.3a21.71,21.71,0,0,0-5.58-.12,19.16,19.16,0,0,0-3.68.64,14,14,0,0,0-5.62,3.56c-.44.43-.9.85-1.37,1.28-.34-.17-.39-.41-.09-.81a13.37,13.37,0,0,1,3.27-3.05,15.22,15.22,0,0,1,7.32-2.52,31.77,31.77,0,0,1,5.85.12,5.82,5.82,0,0,1,.79.16A1.73,1.73,0,0,1,218.9,146.86Z"/><path class="cls-3" d="M189.74,172.22a4.26,4.26,0,0,1-2-.62.6.6,0,0,1-.13-.09.29.29,0,0,1-.05-.43c.1-.15.23-.14.37-.06a4.21,4.21,0,0,0,1.71.59,3.94,3.94,0,0,0,2.28-.45l.07,0a.29.29,0,0,1,.45.13c.09.18,0,.3-.17.39A4.93,4.93,0,0,1,189.74,172.22Z"/><path class="cls-4" d="M209.74,168.84c-1.57,0-3.13,0-4.7,0s-2.75-1-2.74-2.5a2.55,2.55,0,0,1,2.78-2.51c3.13,0,6.26,0,9.39,0a2.47,2.47,0,0,1,2.72,2.53,2.42,2.42,0,0,1-2.63,2.47C213,168.87,211.34,168.84,209.74,168.84Z"/><path class="cls-4" d="M194.8,168.83a2.41,2.41,0,0,1-2.42-2.56,2.48,2.48,0,1,1,5,.11A2.41,2.41,0,0,1,194.8,168.83Z"/><path class="cls-4" d="M221.14,126.12a18.52,18.52,0,0,1,2.77,1.31,7.39,7.39,0,0,1,3.25,6.58c0,4.54,0,9.08,0,13.63,0,7.64-.11,15.28,0,22.92a7.87,7.87,0,0,1-8.26,8.28c-19.37-.09-38.75,0-58.13,0-5.18,0-8.2-3-8.2-8.25,0-11.78.07-23.55,0-35.32,0-4.12,1.05-7.48,6.08-9.11ZM157.64,151v19.74c0,2.14.84,3,3,3h58.48c2.15,0,3-.86,3-3q0-9.22,0-18.46c0-.4,0-.8,0-1.26Zm64.45-9.93H157.7v4.76h64.44v-3.93C222.14,141.7,222.11,141.45,222.09,141.11Zm0-5.13c0-.3,0-.47,0-.63.06-3.72-.46-4.26-4.14-4.26H161.14a10.26,10.26,0,0,0-1.24,0,2.43,2.43,0,0,0-2.23,2.14c-.07.89,0,1.79,0,2.72Z"/><path class="cls-5" d="M157.64,151h64.45c0,.46,0,.86,0,1.26q0,9.24,0,18.46c0,2.13-.86,3-3,3H160.65c-2.17,0-3-.83-3-3V151Zm52.1,17.8c1.6,0,3.21,0,4.82,0a2.43,2.43,0,0,0,2.63-2.48,2.47,2.47,0,0,0-2.72-2.53q-4.69,0-9.39,0a2.55,2.55,0,0,0-2.78,2.5c0,1.5,1,2.47,2.74,2.51S208.17,168.85,209.74,168.84Zm-14.94,0a2.43,2.43,0,0,0,2.53-2.46,2.48,2.48,0,1,0-5-.11A2.42,2.42,0,0,0,194.8,168.83Z"/><path class="cls-5" d="M222.09,141.11c0,.34,0,.59,0,.83v3.93H157.7v-4.76Z"/><path class="cls-5" d="M222.1,136H157.66c0-.93-.06-1.83,0-2.72a2.43,2.43,0,0,1,2.23-2.14,10.26,10.26,0,0,1,1.24,0H218c3.68,0,4.2.54,4.14,4.26C222.14,135.51,222.12,135.68,222.1,136Z"/><line class="cls-5" x1="143.15" y1="138.97" x2="107.84" y2="139.16"/><path class="cls-4" d="M107.84,139.16h0a1.57,1.57,0,0,1,1.64-1.47l32-.17a1.57,1.57,0,0,1,1.66,1.45h0a1.56,1.56,0,0,1-1.64,1.46l-32,.17A1.57,1.57,0,0,1,107.84,139.16Z"/><line class="cls-5" x1="130.66" y1="150.92" x2="90.25" y2="151.16"/><rect class="cls-4" x="90.25" y="149.16" width="40.41" height="3.77" rx="1.88" transform="translate(-0.92 0.68) rotate(-0.35)"/><line class="cls-5" x1="139.57" y1="160.84" x2="99.16" y2="161.09"/><rect class="cls-4" x="99.16" y="159.08" width="40.41" height="3.77" rx="1.88" transform="translate(-0.97 0.73) rotate(-0.35)"/><line class="cls-5" x1="149.47" y1="170.39" x2="117.25" y2="170.58"/><rect class="cls-4" x="117.25" y="168.99" width="32.22" height="3" rx="1.5" transform="translate(-1.03 0.81) rotate(-0.35)"/><path class="cls-6" d="M135.89,228.17a1,1,0,0,1-1.08,1.08h-2.35a1,1,0,0,1-1.08-1.08v-5.46H126.5v5.46a1,1,0,0,1-1.08,1.08h-2.35a1,1,0,0,1-1.08-1.08V212.72a1,1,0,0,1,1.08-1.08h2.35a1,1,0,0,1,1.08,1.08v5.46h4.88v-5.46c0-.73.32-1.08,1.08-1.08h2.35a1,1,0,0,1,1.08,1.08Z"/><path class="cls-5" d="M149.4,211.64a1.19,1.19,0,0,1,1.2.86L156.06,228c.25.76-.06,1.21-.89,1.21h-2.54a1.17,1.17,0,0,1-1.2-.89l-.76-2.16h-5.2l-.77,2.16a1.22,1.22,0,0,1-1.2.89h-2.6c-.83,0-1.14-.45-.89-1.21l5.46-15.54a1.19,1.19,0,0,1,1.2-.86Zm.32,10.69-1.65-4.92-1.53,4.92Z"/><path class="cls-5" d="M172.55,217.41a5.69,5.69,0,0,1-2,4.54,6.17,6.17,0,0,1-3.93,1.27h-3.43v4.95c0,.7-.31,1.08-1,1.08h-2.41c-.7,0-1-.38-1-1.08V212.72c0-.73.32-1.08,1-1.08H167a5.63,5.63,0,0,1,3.81,1.33,4.77,4.77,0,0,1,1.2,1.69A7.15,7.15,0,0,1,172.55,217.41Zm-4.31,0a1.34,1.34,0,0,0-1.46-1.42h-3.62v2.92h3.43A1.57,1.57,0,0,0,168.24,217.41Z"/><path class="cls-5" d="M188.92,217.41a5.72,5.72,0,0,1-2,4.54,6.17,6.17,0,0,1-3.93,1.27h-3.43v4.95c0,.7-.32,1.08-1,1.08h-2.41c-.7,0-1-.38-1-1.08V212.72c0-.73.32-1.08,1-1.08h7.23a5.59,5.59,0,0,1,3.8,1.33,4.78,4.78,0,0,1,1.21,1.69A7.15,7.15,0,0,1,188.92,217.41Zm-4.31,0a1.34,1.34,0,0,0-1.46-1.42h-3.62v2.92H183A1.58,1.58,0,0,0,184.61,217.41Z"/><path class="cls-5" d="M196.72,229.25a1,1,0,0,1-1.07-1.08v-7.11l-5.08-8.12c-.44-.76-.19-1.3.7-1.3h2.85a1.43,1.43,0,0,1,1.27.73l2.48,4,2.47-4a1.43,1.43,0,0,1,1.27-.73h2.85c.89,0,1.21.54.7,1.3l-5,8.12v7.11a1,1,0,0,1-1.08,1.08Z"/><path class="cls-5" d="M221.78,217.41a5.72,5.72,0,0,1-2,4.54,6.17,6.17,0,0,1-3.93,1.27h-3.43v4.95c0,.7-.31,1.08-1,1.08H209c-.7,0-1-.38-1-1.08V212.72c0-.73.32-1.08,1-1.08h7.23A5.63,5.63,0,0,1,220,213a4.9,4.9,0,0,1,1.2,1.69A7.15,7.15,0,0,1,221.78,217.41Zm-4.31,0A1.34,1.34,0,0,0,216,216h-3.62v2.92h3.43A1.58,1.58,0,0,0,217.47,217.41Z"/><path class="cls-5" d="M233.33,229.69a9.21,9.21,0,0,1-6.54-2.73,9,9,0,0,1-2.72-6.53,9.18,9.18,0,0,1,2.72-6.54,9.06,9.06,0,0,1,6.54-2.69,9.25,9.25,0,0,1,9.26,9.23,9.05,9.05,0,0,1-2.73,6.53A9.41,9.41,0,0,1,233.33,229.69Zm0-14A4.67,4.67,0,0,0,230,217.1a4.7,4.7,0,0,0,0,6.69,4.53,4.53,0,0,0,3.36,1.4,4.78,4.78,0,0,0,3.36-8.09A4.9,4.9,0,0,0,233.33,215.67Z"/><path class="cls-5" d="M255,225a.8.8,0,0,0,.44-.7,1.12,1.12,0,0,0-.19-.7c-.06-.06-.19-.13-.31-.25a8.56,8.56,0,0,0-1.53-.64,9.94,9.94,0,0,0-1.58-.32c-2.6-.57-4.89-1.58-5.84-2.91a5.32,5.32,0,0,1-.76-2.26,4.82,4.82,0,0,1,.25-2,5.57,5.57,0,0,1,2.54-3,9.26,9.26,0,0,1,4.51-1.11,13.83,13.83,0,0,1,3.55.5,9.89,9.89,0,0,1,2.35,1.15.89.89,0,0,1,.25,1.45l-1.33,1.78a.93.93,0,0,1-1.46.32,6.57,6.57,0,0,0-3.36-1,3.57,3.57,0,0,0-1.84.42,1.27,1.27,0,0,0-.64.66.8.8,0,0,0,.45,1.08,6.57,6.57,0,0,0,1.84.6c3.68.73,5.71,1.72,6.53,2.86a5.3,5.3,0,0,1-.95,7.29,7.94,7.94,0,0,1-5.08,1.4h-.88a12.82,12.82,0,0,1-6.35-1.84.88.88,0,0,1-.32-1.46l1.65-2a1,1,0,0,1,1.46-.25,8.6,8.6,0,0,0,3.56,1.27A5.18,5.18,0,0,0,255,225Z"/></svg>